# Blender v2.80 (sub 75) OBJ File: 'survivalCat.blend'
# www.blender.org
mtllib survivalCat.mtl
o Cube
v 0.871515 4.076402 -2.205069
v 1.000000 2.346139 -2.605851
v 1.000000 4.130239 2.310071
v 1.000000 3.512089 2.241492
v -0.871515 4.076402 -2.205069
v -1.000000 2.346139 -2.605851
v -1.000000 4.130239 2.310071
v -1.000000 3.512089 2.241492
v -1.000000 2.346139 0.000000
v 0.871515 4.253549 0.000000
v -0.871515 4.253549 0.000000
v 1.000000 2.346139 0.000000
v -1.000000 2.346139 1.302925
v 0.871515 4.253549 1.302925
v -0.871515 4.253549 1.302925
v 1.000000 2.346139 1.302925
v -0.871515 4.253549 -1.280737
v 1.000000 2.346139 -1.280737
v -1.000000 2.346139 -1.280737
v 0.871515 4.253549 -1.280737
v -0.871515 4.253549 -1.943294
v 0.850313 1.302819 -1.389004
v -0.850313 1.302819 -1.389004
v 0.871515 4.253549 -1.943294
v -1.000000 2.346139 1.954388
v 0.871515 4.253549 1.954388
v -0.871515 4.253549 1.954388
v 1.000000 2.346139 1.954388
v 0.000000 2.346139 -2.605851
v 0.000000 4.140339 2.605851
v 0.000000 3.203455 2.498687
v 0.000000 4.413323 -2.605851
v 0.000000 2.346139 0.000000
v 0.000000 4.413323 0.000000
v 0.000000 2.346139 1.302925
v 0.000000 4.413323 1.302925
v 0.000000 4.413323 -1.280737
v 0.000000 2.346139 -1.280737
v 0.000000 2.354849 -1.265077
v 0.000000 4.413323 -1.943294
v 0.000000 2.346139 1.954388
v 0.000000 4.413323 1.954388
v -0.500000 2.346139 -2.605851
v -0.630915 4.140339 2.605851
v -0.500000 2.346139 0.000000
v -0.500000 2.346139 1.302925
v -0.500000 2.346139 -1.280737
v -0.425156 1.302819 -1.389004
v -0.500000 2.346139 1.954388
v -0.500000 3.203455 2.498687
v -0.500000 4.346139 -2.605851
v -0.500000 4.346139 0.000000
v -0.500000 4.346139 1.302925
v -0.500000 4.346139 -1.280737
v -0.500000 4.346139 -1.943294
v -0.500000 4.346139 1.954388
v 0.500000 3.203455 2.498687
v 0.500000 4.346139 -2.605851
v 0.500000 4.346139 0.000000
v 0.500000 4.346139 1.302925
v 0.500000 4.346139 -1.280737
v 0.500000 4.346139 -1.943294
v 0.500000 4.346139 1.954388
v 0.500000 2.346139 -2.605851
v 0.630915 4.140339 2.605851
v 0.500000 2.346139 0.000000
v 0.500000 2.346139 1.302925
v 0.500000 2.346139 -1.280737
v 0.425156 1.302819 -1.389004
v 0.500000 2.346139 1.954388
v -0.500000 0.016237 1.302925
v -1.000000 0.016237 1.302925
v -1.000000 0.016237 1.954388
v -0.500000 0.016237 1.954388
v -0.500000 0.034067 -1.943294
v -1.000000 0.034067 -1.943294
v -1.000000 0.034067 -2.605851
v -0.500000 0.034067 -2.605851
v 1.000000 0.042639 -1.943294
v 1.000000 0.042639 -2.605851
v 0.500000 0.042639 -2.605851
v 0.500000 0.042639 -1.943294
v 1.000000 -0.002614 1.954388
v 1.000000 -0.002614 1.302925
v 0.500000 -0.002614 1.302925
v 0.500000 -0.002614 1.954388
v -0.500000 9.120507 -2.556307
v 0.000000 9.827793 -2.567452
v -0.500000 9.120507 -2.018558
v 0.000000 9.827793 -1.968833
v 0.500000 9.120507 -2.556307
v 0.500000 9.120507 -2.018558
v -0.265020 6.457021 2.279947
v 0.360985 4.312487 3.818109
v -0.000000 4.263789 3.796143
v -0.360985 4.312487 3.818109
v 0.695751 5.406297 3.783453
v 0.000000 5.650801 3.800248
v -0.684478 5.397726 3.728847
v 0.791767 4.113949 3.156191
v 0.000000 4.113949 3.156191
v -0.791767 4.113949 3.156191
v 0.791767 5.774944 3.165121
v 0.000000 6.004664 3.165121
v -0.791767 5.774944 3.165121
v 0.004889 4.810291 4.348424
v 0.000000 5.259573 4.338035
v 0.154612 4.691568 4.264960
v -0.154612 4.691568 4.264960
v 0.210065 5.249438 4.240127
v -0.186661 5.252457 4.238034
v 0.630915 5.846684 2.670500
v 0.548907 5.966155 2.504396
v 0.082060 5.996694 2.504396
v -0.074590 5.996694 2.505399
v 0.000000 6.024816 2.729296
v -0.500000 5.864756 1.954388
v -0.428166 6.180772 2.038520
v -0.080845 6.118078 2.051437
v 0.075805 6.118078 2.047249
v 0.000000 5.864756 1.954388
v -0.556335 5.966155 2.505399
v -0.630915 5.846109 2.670500
v 0.417940 6.180772 2.034242
v 0.500000 5.864756 1.954388
v 0.250000 6.458573 2.280119
v 0.000000 5.966155 2.505047
v 0.000503 5.866078 1.962537
vt 0.562500 0.218750
vt 0.625000 0.218750
vt 0.625000 0.250000
vt 0.562500 0.250000
vt 0.375000 0.437500
vt 0.625000 0.437500
vt 0.625000 0.500000
vt 0.375000 0.500000
vt 0.375000 0.718218
vt 0.625000 0.718218
vt 0.625000 0.750000
vt 0.375000 0.750000
vt 0.562500 0.968750
vt 0.625000 0.968750
vt 0.625000 1.000000
vt 0.562500 1.000000
vt 0.125000 0.718750
vt 0.375000 0.718750
vt 0.375000 0.750000
vt 0.125000 0.750000
vt 0.625000 0.687500
vt 0.875000 0.687500
vt 0.875000 0.750000
vt 0.625000 0.750000
vt 0.125000 0.563564
vt 0.375000 0.563564
vt 0.375000 0.625000
vt 0.125000 0.625000
vt 0.562500 0.813564
vt 0.625000 0.813564
vt 0.625000 0.875000
vt 0.562500 0.875000
vt 0.375000 0.562500
vt 0.625000 0.562500
vt 0.625000 0.625000
vt 0.375000 0.625000
vt 0.562500 0.063564
vt 0.625000 0.063564
vt 0.625000 0.125000
vt 0.562500 0.125000
vt 0.375000 0.531250
vt 0.625000 0.531250
vt 0.375000 0.687500
vt 0.125000 0.687500
vt 0.625000 0.937500
vt 0.562500 0.937500
vt 0.625000 0.187500
vt 0.562500 0.187500
vt 0.562500 0.031782
vt 0.625000 0.031782
vt 0.562500 0.781782
vt 0.625000 0.781782
vt 0.125000 0.531782
vt 0.375000 0.531782
vt 0.625000 0.686436
vt 0.375000 0.686436
vt 0.125000 0.500000
vt 0.375000 0.500000
vt 0.125000 0.531782
vt 0.125000 0.500000
vt 0.562500 0.000000
vt 0.625000 0.000000
vt 0.562500 0.968750
vt 0.625000 0.968750
vt 0.437500 0.187500
vt 0.500000 0.187500
vt 0.500000 0.218750
vt 0.437500 0.218750
vt 0.437500 0.937500
vt 0.500000 0.937500
vt 0.500000 0.968750
vt 0.437500 0.968750
vt 0.500000 0.031782
vt 0.437500 0.031782
vt 0.437500 0.031782
vt 0.500000 0.031782
vt 0.437500 0.750000
vt 0.500000 0.750000
vt 0.500000 0.781782
vt 0.437500 0.781782
vt 0.500000 0.813564
vt 0.437500 0.813564
vt 0.500000 0.063564
vt 0.437500 0.063564
vt 0.437500 0.125000
vt 0.500000 0.125000
vt 0.437500 0.875000
vt 0.500000 0.875000
vt 0.625000 0.562500
vt 0.875000 0.562500
vt 0.875000 0.625000
vt 0.625000 0.625000
vt 0.500000 1.000000
vt 0.437500 1.000000
vt 0.375000 0.312500
vt 0.625000 0.312500
vt 0.625000 0.375000
vt 0.375000 0.375000
vt 0.552517 0.222581
vt 0.552517 0.246169
vt 0.552517 0.222581
vt 0.375000 0.968750
vt 0.375000 1.000000
vt 0.625000 0.500000
vt 0.875000 0.500000
vt 0.375000 0.813564
vt 0.375000 0.875000
vt 0.375000 0.937500
vt 0.375000 0.781782
vt 0.437500 0.781782
vt 0.437500 0.750000
vt 0.437500 0.937500
vt 0.375000 0.937500
vt 0.875000 0.562500
vt 0.875000 0.625000
vt 0.562500 0.250000
vt 0.562500 0.250000
vt 0.562500 0.250000
vt 0.375000 0.218750
vt 0.437500 0.250000
vt 0.375000 0.250000
vt 0.375000 0.250000
vt 0.625000 0.250000
vt 0.375000 0.063564
vt 0.375000 0.125000
vt 0.375000 0.187500
vt 0.375000 0.031782
vt 0.375000 0.000000
vt 0.437500 0.000000
vt 0.562500 0.750000
vt 0.562500 0.750000
vt 0.625000 0.750000
vt 0.625000 0.781782
vt 0.562500 0.781782
vt 0.375000 0.562500
vt 0.375000 0.531250
vt 0.437500 0.968750
vt 0.375000 0.968750
vt 0.375000 0.781782
vt 0.625000 0.562500
vt 0.625000 0.500000
vt 0.375000 0.750000
vt 0.375000 0.718218
vt 0.625000 0.687500
vt 0.562500 0.937500
vt 0.625000 0.937500
vt 0.125000 0.718750
vt 0.125000 0.687500
vt 0.000000 0.000000
vt 0.000000 0.000000
vt 0.000000 0.000000
vt 0.000000 0.000000
vt 0.437500 0.000000
vt 0.500000 0.000000
vt 0.562500 0.000000
vt 0.562500 0.031782
vt 0.875000 0.687500
vt 0.437500 0.218750
vt 0.437500 0.253831
vt 0.500000 0.250000
vt 0.500000 0.250000
vt 0.625000 0.375000
vt 0.625000 0.437500
vt 0.437500 0.250000
vt 0.437500 0.250000
vt 0.437500 0.250000
vt 0.562500 0.253831
vt 0.562500 0.218750
vt 0.500000 0.218750
vt 0.625000 0.375000
vt 0.625000 0.420123
vt 0.625000 0.420123
vt 0.625000 0.375000
vt 0.625000 0.329877
vt 0.625000 0.329877
vt 0.625000 0.329877
vt 0.625000 0.329877
vt 0.625000 0.312500
vt 0.625000 0.375000
vt 0.625000 0.420123
vt 0.625000 0.312500
vt 0.625000 0.375000
vt 0.625000 0.437500
vt 0.625000 0.420123
vt 0.625000 0.375000
vt 0.490017 0.246169
vt 0.500000 0.246169
vt 0.509983 0.222581
vt 0.500000 0.222581
vt 0.447483 0.246169
vt 0.490017 0.222581
vt 0.509983 0.246169
vt 0.447483 0.222581
vt 0.447483 0.222581
vt 0.552517 0.246169
vt 0.509983 0.246169
vt 0.509983 0.222581
vt 0.490017 0.222581
vt 0.447483 0.246169
vt 0.490017 0.246169
vn -0.2297 0.9410 0.2484
vn -0.5652 -0.1395 0.8131
vn -0.9929 0.0266 0.1161
vn 0.3347 -0.3582 0.8716
vn 0.9575 0.0564 -0.2829
vn 0.4433 0.1108 -0.8895
vn 0.9977 0.0672 0.0000
vn 0.0000 -1.0000 0.0000
vn -0.9977 0.0672 0.0000
vn -0.2418 0.9703 0.0000
vn 0.0000 -0.1032 0.9947
vn 0.9817 -0.0001 -0.1905
vn 0.9929 0.0266 0.1161
vn 0.9952 0.0271 0.0943
vn -0.5020 0.8494 -0.1628
vn -0.9817 -0.0001 -0.1905
vn -0.9575 0.0564 -0.2829
vn 0.0000 0.0000 1.0000
vn 0.1332 0.9911 0.0000
vn 0.0573 0.0099 0.9983
vn 0.7384 -0.6174 -0.2713
vn -0.0296 -0.0912 0.9954
vn 0.0000 0.0000 -1.0000
vn 0.0000 -0.5360 0.8442
vn 0.0000 -0.1136 0.9935
vn -0.8603 0.5097 -0.0019
vn -0.3347 -0.3582 0.8716
vn -0.4433 0.1108 -0.8895
vn 0.9988 -0.0136 -0.0473
vn -0.1332 0.9911 0.0000
vn -0.0178 0.0086 -0.9998
vn -0.9559 0.0064 -0.2937
vn 0.2297 0.9410 0.2484
vn 0.5652 -0.1395 0.8131
vn 0.2418 0.9703 0.0000
vn 0.5020 0.8494 -0.1628
vn -0.7384 -0.6174 -0.2713
vn 0.0296 -0.0912 0.9954
vn -1.0000 0.0000 0.0000
vn 1.0000 0.0000 0.0000
vn 0.0000 -0.4003 0.9164
vn -0.9952 0.0270 0.0943
vn -0.9988 -0.0136 -0.0473
vn 0.0000 -0.4026 0.9154
vn 0.8166 0.5773 0.0000
vn -0.8166 0.5773 0.0000
vn 0.0178 0.0086 -0.9998
vn -0.0573 0.0099 0.9983
vn 0.9823 0.0038 -0.1874
vn -0.2774 0.9596 0.0462
vn 0.0000 -0.9989 -0.0479
vn 0.9559 0.0064 -0.2937
vn -0.9823 0.0038 -0.1874
vn -0.3365 0.7635 0.5512
vn 0.7647 -0.1582 0.6246
vn 0.2771 0.9597 0.0469
vn 0.0355 -0.9624 0.2693
vn -0.0355 -0.9624 0.2693
vn 0.2688 0.8254 0.4964
vn -0.2885 0.8058 0.5172
vn -0.9165 -0.0966 0.3883
vn 0.9243 -0.1089 0.3659
vn -0.4726 0.0153 0.8812
vn 0.4525 0.0085 0.8917
vn 0.0189 -0.7355 0.6773
vn -0.7837 -0.1263 0.6082
vn 0.2887 0.7719 0.5664
vn -0.0193 -0.7354 0.6774
vn -0.3404 0.9097 -0.2380
vn 0.9332 0.3411 -0.1130
vn 0.1936 0.9554 0.2232
vn 0.0370 0.3036 -0.9521
vn -0.8755 0.4830 0.0153
vn -0.1916 0.9552 0.2257
vn -0.9453 0.2896 -0.1499
vn -0.0363 0.2897 -0.9564
vn 0.9352 0.3240 -0.1429
vn -0.1410 0.6070 -0.7821
vn -0.0273 0.4306 0.9022
vn 0.9011 0.4219 0.1004
vn 0.1382 0.6042 -0.7848
vn -0.9141 0.3886 0.1157
vn 0.8552 0.5184 -0.0016
vn 0.0280 0.4284 0.9032
vn 0.8762 0.4819 0.0052
vn -0.9593 0.2821 0.0134
vn 0.3673 0.8998 -0.2354
usemtl Material
s off
f 56/1/1 27/2/1 7/3/1 44/4/1
f 50/5/2 44/6/2 7/7/2 8/8/2
f 23/9/3 21/10/3 5/11/3 6/12/3
f 70/13/4 28/14/4 4/15/4 57/16/4
f 28/17/5 26/18/5 3/19/5 4/20/5
f 64/21/6 58/22/6 1/23/6 2/24/6
f 18/25/7 20/26/7 10/27/7 12/28/7
f 68/29/8 18/30/8 12/31/8 66/32/8
f 13/33/9 15/34/9 11/35/9 9/36/9
f 54/37/10 17/38/10 11/39/10 52/40/10
f 25/41/9 27/42/9 15/34/9 13/33/9
f 12/28/7 10/27/7 14/43/7 16/44/7
f 66/32/8 12/31/8 16/45/8 67/46/8
f 52/40/10 11/39/10 15/47/10 53/48/10
f 55/49/10 21/50/10 17/38/10 54/37/10
f 69/51/11 22/52/11 18/30/11 68/29/11
f 22/53/12 24/54/12 20/26/12 18/25/12
f 9/36/9 11/35/9 17/55/9 19/56/9
f 2/57/13 1/58/13 24/54/13 22/53/13
f 2/57/14 22/53/14 79/59/14 80/60/14
f 51/61/15 5/62/15 21/50/15 55/49/15
f 19/56/16 17/55/16 21/10/16 23/9/16
f 8/8/17 7/7/17 27/42/17 25/41/17
f 16/44/7 14/43/7 26/18/7 28/17/7
f 28/14/18 70/13/18 86/63/18 83/64/18
f 53/48/10 15/47/10 27/2/10 56/1/10
f 60/65/19 36/66/19 42/67/19 63/68/19
f 46/69/8 35/70/8 41/71/8 49/72/8
f 40/73/20 62/74/20 92/75/20 90/76/20
f 43/77/21 29/78/21 39/79/21 48/80/21
f 48/80/22 39/79/22 38/81/22 47/82/22
f 62/74/19 40/73/19 37/83/19 61/84/19
f 59/85/19 34/86/19 36/66/19 60/65/19
f 45/87/8 33/88/8 35/70/8 46/69/8
f 61/84/19 37/83/19 34/86/19 59/85/19
f 47/82/8 38/81/8 33/88/8 45/87/8
f 43/89/23 51/90/23 32/91/23 29/92/23
f 49/72/24 41/71/24 31/93/24 50/94/24
f 57/95/25 65/96/25 30/97/25 31/98/25
f 118/99/26 122/100/26 93/101/26
f 25/102/27 49/72/27 50/94/27 8/103/27
f 6/104/28 5/105/28 51/90/28 43/89/28
f 19/106/8 47/82/8 45/87/8 9/107/8
f 9/107/8 45/87/8 46/69/8 13/108/8
f 23/109/11 48/80/11 47/82/11 19/106/11
f 43/77/29 48/80/29 75/110/29 78/111/29
f 13/108/23 46/69/23 71/112/23 72/113/23
f 36/66/30 53/48/30 56/1/30 42/67/30
f 32/91/31 51/90/31 87/114/31 88/115/31
f 40/73/30 55/49/30 54/37/30 37/83/30
f 34/86/30 52/40/30 53/48/30 36/66/30
f 37/83/30 54/37/30 52/40/30 34/86/30
f 31/98/25 30/97/25 44/6/25 50/5/25
f 123/116/32 44/4/32 102/117/32 105/118/32
f 26/119/33 63/68/33 65/120/33 3/121/33
f 4/122/34 3/123/34 65/96/34 57/95/34
f 20/124/35 61/84/35 59/85/35 10/125/35
f 10/125/35 59/85/35 60/65/35 14/126/35
f 24/127/35 62/74/35 61/84/35 20/124/35
f 1/128/36 58/129/36 62/74/36 24/127/36
f 14/126/35 60/65/35 63/68/35 26/119/35
f 35/70/8 67/46/8 70/13/8 41/71/8
f 29/78/37 64/130/37 69/51/37 39/79/37
f 39/79/38 69/51/38 68/29/38 38/81/38
f 33/88/8 66/32/8 67/46/8 35/70/8
f 38/81/8 68/29/8 66/32/8 33/88/8
f 29/92/23 32/91/23 58/22/23 64/21/23
f 41/71/24 70/13/24 57/16/24 31/93/24
f 81/131/8 80/132/8 79/133/8 82/134/8
f 25/41/39 13/33/39 72/135/39 73/136/39
f 46/69/40 49/72/40 74/137/40 71/112/40
f 49/72/18 25/102/18 73/138/18 74/137/18
f 48/80/41 23/109/41 76/139/41 75/110/41
f 6/104/23 43/89/23 78/140/23 77/141/23
f 23/9/42 6/12/42 77/142/42 76/143/42
f 77/142/8 78/111/8 75/110/8 76/139/8
f 69/51/43 64/130/43 81/131/43 82/134/43
f 64/21/23 2/24/23 80/132/23 81/144/23
f 22/52/44 69/51/44 82/134/44 79/133/44
f 85/145/8 84/146/8 83/64/8 86/63/8
f 16/44/40 28/17/40 83/147/40 84/148/40
f 67/46/23 16/45/23 84/146/23 85/145/23
f 70/13/39 67/46/39 85/145/39 86/63/39
f 74/149/8 73/150/8 72/151/8 71/152/8
f 91/153/45 88/154/45 90/76/45 92/75/45
f 88/154/46 87/155/46 89/156/46 90/76/46
f 51/61/39 55/49/39 89/156/39 87/155/39
f 58/22/47 32/91/47 88/115/47 91/157/47
f 55/49/48 40/73/48 90/76/48 89/156/48
f 62/74/40 58/129/40 91/153/40 92/75/40
f 65/120/49 63/68/49 125/158/49 112/159/49
f 116/160/50 123/116/50 105/118/50 104/161/50
f 44/6/51 30/97/51 101/162/51 102/163/51
f 65/120/52 112/164/52 103/165/52 100/166/52
f 56/1/53 44/4/53 123/167/53 117/168/53
f 63/68/23 42/67/23 121/169/23 125/158/23
f 98/170/54 99/171/54 111/172/54 107/173/54
f 94/174/55 97/175/55 110/176/55 108/177/55
f 30/97/51 65/96/51 100/178/51 101/162/51
f 42/67/23 56/1/23 117/168/23 121/169/23
f 112/164/56 116/160/56 104/161/56 103/165/56
f 94/174/57 95/179/57 101/162/57 100/178/57
f 95/179/58 96/180/58 102/163/58 101/162/58
f 98/170/59 97/175/59 103/181/59 104/182/59
f 99/171/60 98/170/60 104/182/60 105/183/60
f 96/180/61 99/171/61 105/183/61 102/163/61
f 97/175/62 94/174/62 100/178/62 103/181/62
f 109/184/63 106/185/63 107/173/63 111/172/63
f 106/185/64 108/177/64 110/176/64 107/173/64
f 96/180/65 95/179/65 106/185/65 109/184/65
f 99/171/66 96/180/66 109/184/66 111/172/66
f 97/175/67 98/170/67 107/173/67 110/176/67
f 95/179/68 94/174/68 108/177/68 106/185/68
f 114/186/69 127/187/69 116/160/69
f 119/188/70 128/189/70 121/169/70
f 113/190/71 114/186/71 116/160/71 112/164/71
f 118/99/72 119/188/72 121/169/72 117/168/72
f 128/189/73 127/187/73 114/186/73 120/191/73
f 115/192/74 122/100/74 123/116/74 116/160/74
f 117/168/75 123/167/75 122/100/75 118/99/75
f 120/191/76 124/193/76 125/158/76 121/169/76
f 124/193/77 113/190/77 112/159/77 125/158/77
f 124/193/78 120/191/78 126/194/78
f 122/100/79 115/192/79 93/195/79
f 115/192/80 119/188/80 93/196/80
f 119/188/81 118/99/81 93/197/81
f 120/191/82 114/186/82 126/198/82
f 113/190/83 124/193/83 126/199/83
f 114/186/84 113/190/84 126/200/84
f 119/188/85 115/192/85 127/187/85 128/189/85
f 121/169/86 128/189/86 120/191/86
f 116/160/87 127/187/87 115/192/87
